<?xml version="1.0" encoding="UTF-8" standalone="no"?>
<!DOCTYPE svg PUBLIC "-//W3C//DTD SVG 1.1//EN"
 "http://www.w3.org/Graphics/SVG/1.1/DTD/svg11.dtd">
<!-- Generated by graphviz version 2.43.0 (0)
 -->
<!-- Title: qpSWIFT.h Pages: 1 -->
<svg width="692pt" height="308pt"
 viewBox="0.00 0.00 692.00 308.00" xmlns="http://www.w3.org/2000/svg" xmlns:xlink="http://www.w3.org/1999/xlink">
<g id="graph0" class="graph" transform="scale(1 1) rotate(0) translate(4 304)">
<title>qpSWIFT.h</title>
<!-- Node1 -->
<g id="node1" class="node">
<title>Node1</title>
<g id="a_node1"><a xlink:title=" ">
<polygon fill="#bfbfbf" stroke="black" points="277.5,-280.5 277.5,-299.5 344.5,-299.5 344.5,-280.5 277.5,-280.5"/>
<text text-anchor="middle" x="311" y="-287.5" font-family="Helvetica,sans-Serif" font-size="10.00">qpSWIFT.h</text>
</a>
</g>
</g>
<!-- Node2 -->
<g id="node2" class="node">
<title>Node2</title>
<g id="a_node2"><a xlink:href="Auxilary_8h.html" target="_top" xlink:title=" ">
<polygon fill="none" stroke="black" points="278.5,-224.5 278.5,-243.5 343.5,-243.5 343.5,-224.5 278.5,-224.5"/>
<text text-anchor="middle" x="311" y="-231.5" font-family="Helvetica,sans-Serif" font-size="10.00">Auxilary.h</text>
</a>
</g>
</g>
<!-- Node1&#45;&gt;Node2 -->
<g id="edge1" class="edge">
<title>Node1&#45;&gt;Node2</title>
<path fill="none" stroke="midnightblue" d="M311,-280.08C311,-273.01 311,-262.86 311,-253.99"/>
<polygon fill="midnightblue" stroke="midnightblue" points="314.5,-253.75 311,-243.75 307.5,-253.75 314.5,-253.75"/>
</g>
<!-- Node3 -->
<g id="node3" class="node">
<title>Node3</title>
<g id="a_node3"><a xlink:href="timer_8h.html" target="_top" xlink:title=" ">
<polygon fill="none" stroke="black" points="133.5,-168.5 133.5,-187.5 184.5,-187.5 184.5,-168.5 133.5,-168.5"/>
<text text-anchor="middle" x="159" y="-175.5" font-family="Helvetica,sans-Serif" font-size="10.00">timer.h</text>
</a>
</g>
</g>
<!-- Node2&#45;&gt;Node3 -->
<g id="edge2" class="edge">
<title>Node2&#45;&gt;Node3</title>
<path fill="none" stroke="midnightblue" d="M286.92,-224.44C261.46,-215.4 221.11,-201.06 192.54,-190.92"/>
<polygon fill="midnightblue" stroke="midnightblue" points="193.57,-187.57 182.97,-187.52 191.22,-194.16 193.57,-187.57"/>
</g>
<!-- Node10 -->
<g id="node10" class="node">
<title>Node10</title>
<g id="a_node10"><a xlink:href="amd_8h_source.html" target="_top" xlink:title=" ">
<polygon fill="none" stroke="black" points="510.5,-112.5 510.5,-131.5 557.5,-131.5 557.5,-112.5 510.5,-112.5"/>
<text text-anchor="middle" x="534" y="-119.5" font-family="Helvetica,sans-Serif" font-size="10.00">amd.h</text>
</a>
</g>
</g>
<!-- Node2&#45;&gt;Node10 -->
<g id="edge9" class="edge">
<title>Node2&#45;&gt;Node10</title>
<path fill="none" stroke="midnightblue" d="M329.64,-224.36C348.85,-215.4 379.62,-200.94 406,-188 441.71,-170.48 482.65,-149.54 508.41,-136.25"/>
<polygon fill="midnightblue" stroke="midnightblue" points="510.22,-139.26 517.5,-131.56 507.01,-133.04 510.22,-139.26"/>
</g>
<!-- Node14 -->
<g id="node14" class="node">
<title>Node14</title>
<g id="a_node14"><a xlink:href="amd__internal_8h_source.html" target="_top" xlink:title=" ">
<polygon fill="none" stroke="black" points="307,-168.5 307,-187.5 397,-187.5 397,-168.5 307,-168.5"/>
<text text-anchor="middle" x="352" y="-175.5" font-family="Helvetica,sans-Serif" font-size="10.00">amd_internal.h</text>
</a>
</g>
</g>
<!-- Node2&#45;&gt;Node14 -->
<g id="edge14" class="edge">
<title>Node2&#45;&gt;Node14</title>
<path fill="none" stroke="midnightblue" d="M317.77,-224.08C323.56,-216.46 332.06,-205.26 339.14,-195.94"/>
<polygon fill="midnightblue" stroke="midnightblue" points="342.1,-197.83 345.36,-187.75 336.52,-193.6 342.1,-197.83"/>
</g>
<!-- Node16 -->
<g id="node16" class="node">
<title>Node16</title>
<g id="a_node16"><a xlink:href="ldl_8h_source.html" target="_top" xlink:title=" ">
<polygon fill="none" stroke="black" points="216,-168.5 216,-187.5 254,-187.5 254,-168.5 216,-168.5"/>
<text text-anchor="middle" x="235" y="-175.5" font-family="Helvetica,sans-Serif" font-size="10.00">ldl.h</text>
</a>
</g>
</g>
<!-- Node2&#45;&gt;Node16 -->
<g id="edge21" class="edge">
<title>Node2&#45;&gt;Node16</title>
<path fill="none" stroke="midnightblue" d="M298.79,-224.32C287.22,-216.11 269.62,-203.6 255.84,-193.81"/>
<polygon fill="midnightblue" stroke="midnightblue" points="257.61,-190.77 247.43,-187.83 253.56,-196.48 257.61,-190.77"/>
</g>
<!-- Node4 -->
<g id="node4" class="node">
<title>Node4</title>
<g id="a_node4"><a xlink:href="GlobalOptions_8h_source.html" target="_top" xlink:title=" ">
<polygon fill="none" stroke="black" points="152.5,-112.5 152.5,-131.5 247.5,-131.5 247.5,-112.5 152.5,-112.5"/>
<text text-anchor="middle" x="200" y="-119.5" font-family="Helvetica,sans-Serif" font-size="10.00">GlobalOptions.h</text>
</a>
</g>
</g>
<!-- Node3&#45;&gt;Node4 -->
<g id="edge3" class="edge">
<title>Node3&#45;&gt;Node4</title>
<path fill="none" stroke="midnightblue" d="M165.77,-168.08C171.56,-160.46 180.06,-149.26 187.14,-139.94"/>
<polygon fill="midnightblue" stroke="midnightblue" points="190.1,-141.83 193.36,-131.75 184.52,-137.6 190.1,-141.83"/>
</g>
<!-- Node8 -->
<g id="node8" class="node">
<title>Node8</title>
<g id="a_node8"><a xlink:title=" ">
<polygon fill="none" stroke="#bfbfbf" points="86,-112.5 86,-131.5 134,-131.5 134,-112.5 86,-112.5"/>
<text text-anchor="middle" x="110" y="-119.5" font-family="Helvetica,sans-Serif" font-size="10.00">time.h</text>
</a>
</g>
</g>
<!-- Node3&#45;&gt;Node8 -->
<g id="edge7" class="edge">
<title>Node3&#45;&gt;Node8</title>
<path fill="none" stroke="midnightblue" d="M150.91,-168.08C143.84,-160.3 133.41,-148.8 124.85,-139.37"/>
<polygon fill="midnightblue" stroke="midnightblue" points="127.25,-136.8 117.94,-131.75 122.07,-141.51 127.25,-136.8"/>
</g>
<!-- Node9 -->
<g id="node9" class="node">
<title>Node9</title>
<g id="a_node9"><a xlink:title=" ">
<polygon fill="none" stroke="#bfbfbf" points="0,-112.5 0,-131.5 68,-131.5 68,-112.5 0,-112.5"/>
<text text-anchor="middle" x="34" y="-119.5" font-family="Helvetica,sans-Serif" font-size="10.00">sys/time.h</text>
</a>
</g>
</g>
<!-- Node3&#45;&gt;Node9 -->
<g id="edge8" class="edge">
<title>Node3&#45;&gt;Node9</title>
<path fill="none" stroke="midnightblue" d="M139.19,-168.44C118.71,-159.6 86.52,-145.69 63.14,-135.59"/>
<polygon fill="midnightblue" stroke="midnightblue" points="64.28,-132.27 53.71,-131.52 61.51,-138.7 64.28,-132.27"/>
</g>
<!-- Node5 -->
<g id="node5" class="node">
<title>Node5</title>
<g id="a_node5"><a xlink:title=" ">
<polygon fill="none" stroke="#bfbfbf" points="204.5,-56.5 204.5,-75.5 255.5,-75.5 255.5,-56.5 204.5,-56.5"/>
<text text-anchor="middle" x="230" y="-63.5" font-family="Helvetica,sans-Serif" font-size="10.00">math.h</text>
</a>
</g>
</g>
<!-- Node4&#45;&gt;Node5 -->
<g id="edge4" class="edge">
<title>Node4&#45;&gt;Node5</title>
<path fill="none" stroke="midnightblue" d="M204.95,-112.08C209.1,-104.61 215.15,-93.72 220.27,-84.52"/>
<polygon fill="midnightblue" stroke="midnightblue" points="223.34,-86.19 225.14,-75.75 217.22,-82.79 223.34,-86.19"/>
</g>
<!-- Node6 -->
<g id="node6" class="node">
<title>Node6</title>
<g id="a_node6"><a xlink:title=" ">
<polygon fill="none" stroke="#bfbfbf" points="274,-56.5 274,-75.5 324,-75.5 324,-56.5 274,-56.5"/>
<text text-anchor="middle" x="299" y="-63.5" font-family="Helvetica,sans-Serif" font-size="10.00">stdio.h</text>
</a>
</g>
</g>
<!-- Node4&#45;&gt;Node6 -->
<g id="edge5" class="edge">
<title>Node4&#45;&gt;Node6</title>
<path fill="none" stroke="midnightblue" d="M215.91,-112.32C231.64,-103.74 255.94,-90.49 274.21,-80.52"/>
<polygon fill="midnightblue" stroke="midnightblue" points="276.03,-83.52 283.13,-75.65 272.68,-77.37 276.03,-83.52"/>
</g>
<!-- Node7 -->
<g id="node7" class="node">
<title>Node7</title>
<g id="a_node7"><a xlink:title=" ">
<polygon fill="none" stroke="#bfbfbf" points="325.5,-0.5 325.5,-19.5 378.5,-19.5 378.5,-0.5 325.5,-0.5"/>
<text text-anchor="middle" x="352" y="-7.5" font-family="Helvetica,sans-Serif" font-size="10.00">stdlib.h</text>
</a>
</g>
</g>
<!-- Node4&#45;&gt;Node7 -->
<g id="edge6" class="edge">
<title>Node4&#45;&gt;Node7</title>
<path fill="none" stroke="midnightblue" d="M196.06,-112.41C190.53,-98.93 182.47,-72.63 195,-56 209.47,-36.8 273.7,-23.28 315.38,-16.35"/>
<polygon fill="midnightblue" stroke="midnightblue" points="316.14,-19.78 325.45,-14.73 315.03,-12.87 316.14,-19.78"/>
</g>
<!-- Node11 -->
<g id="node11" class="node">
<title>Node11</title>
<g id="a_node11"><a xlink:title=" ">
<polygon fill="none" stroke="#bfbfbf" points="628,-56.5 628,-75.5 684,-75.5 684,-56.5 628,-56.5"/>
<text text-anchor="middle" x="656" y="-63.5" font-family="Helvetica,sans-Serif" font-size="10.00">stddef.h</text>
</a>
</g>
</g>
<!-- Node10&#45;&gt;Node11 -->
<g id="edge10" class="edge">
<title>Node10&#45;&gt;Node11</title>
<path fill="none" stroke="midnightblue" d="M553.33,-112.44C573.32,-103.6 604.74,-89.69 627.56,-79.59"/>
<polygon fill="midnightblue" stroke="midnightblue" points="629.03,-82.76 636.76,-75.52 626.2,-76.36 629.03,-82.76"/>
</g>
<!-- Node12 -->
<g id="node12" class="node">
<title>Node12</title>
<g id="a_node12"><a xlink:href="SuiteSparse__config_8h_source.html" target="_top" xlink:title=" ">
<polygon fill="none" stroke="black" points="492,-56.5 492,-75.5 610,-75.5 610,-56.5 492,-56.5"/>
<text text-anchor="middle" x="551" y="-63.5" font-family="Helvetica,sans-Serif" font-size="10.00">SuiteSparse_config.h</text>
</a>
</g>
</g>
<!-- Node10&#45;&gt;Node12 -->
<g id="edge11" class="edge">
<title>Node10&#45;&gt;Node12</title>
<path fill="none" stroke="midnightblue" d="M536.81,-112.08C539.08,-104.85 542.37,-94.41 545.21,-85.4"/>
<polygon fill="midnightblue" stroke="midnightblue" points="548.58,-86.34 548.25,-75.75 541.9,-84.24 548.58,-86.34"/>
</g>
<!-- Node12&#45;&gt;Node7 -->
<g id="edge13" class="edge">
<title>Node12&#45;&gt;Node7</title>
<path fill="none" stroke="midnightblue" d="M519.47,-56.44C483.91,-46.79 426.15,-31.12 388.62,-20.94"/>
<polygon fill="midnightblue" stroke="midnightblue" points="389.18,-17.46 378.61,-18.22 387.34,-24.22 389.18,-17.46"/>
</g>
<!-- Node13 -->
<g id="node13" class="node">
<title>Node13</title>
<g id="a_node13"><a xlink:title=" ">
<polygon fill="none" stroke="#bfbfbf" points="480.5,-0.5 480.5,-19.5 533.5,-19.5 533.5,-0.5 480.5,-0.5"/>
<text text-anchor="middle" x="507" y="-7.5" font-family="Helvetica,sans-Serif" font-size="10.00">limits.h</text>
</a>
</g>
</g>
<!-- Node12&#45;&gt;Node13 -->
<g id="edge12" class="edge">
<title>Node12&#45;&gt;Node13</title>
<path fill="none" stroke="midnightblue" d="M543.73,-56.08C537.46,-48.38 528.21,-37.03 520.57,-27.65"/>
<polygon fill="midnightblue" stroke="midnightblue" points="523.16,-25.29 514.13,-19.75 517.73,-29.71 523.16,-25.29"/>
</g>
<!-- Node14&#45;&gt;Node5 -->
<g id="edge18" class="edge">
<title>Node14&#45;&gt;Node5</title>
<path fill="none" stroke="midnightblue" d="M342.43,-168.37C321.85,-149.81 273.16,-105.91 247.12,-82.44"/>
<polygon fill="midnightblue" stroke="midnightblue" points="249.3,-79.69 239.53,-75.59 244.61,-84.89 249.3,-79.69"/>
</g>
<!-- Node14&#45;&gt;Node6 -->
<g id="edge16" class="edge">
<title>Node14&#45;&gt;Node6</title>
<path fill="none" stroke="midnightblue" d="M347.84,-168.37C339.17,-150.38 319.02,-108.55 307.49,-84.63"/>
<polygon fill="midnightblue" stroke="midnightblue" points="310.63,-83.08 303.14,-75.59 304.33,-86.12 310.63,-83.08"/>
</g>
<!-- Node14&#45;&gt;Node7 -->
<g id="edge15" class="edge">
<title>Node14&#45;&gt;Node7</title>
<path fill="none" stroke="midnightblue" d="M352,-168.08C352,-141.95 352,-65.21 352,-29.58"/>
<polygon fill="midnightblue" stroke="midnightblue" points="355.5,-29.57 352,-19.57 348.5,-29.57 355.5,-29.57"/>
</g>
<!-- Node14&#45;&gt;Node10 -->
<g id="edge19" class="edge">
<title>Node14&#45;&gt;Node10</title>
<path fill="none" stroke="midnightblue" d="M380.84,-168.44C413.27,-158.82 465.87,-143.21 500.2,-133.03"/>
<polygon fill="midnightblue" stroke="midnightblue" points="501.64,-136.25 510.23,-130.05 499.64,-129.54 501.64,-136.25"/>
</g>
<!-- Node14&#45;&gt;Node13 -->
<g id="edge17" class="edge">
<title>Node14&#45;&gt;Node13</title>
<path fill="none" stroke="midnightblue" d="M381.4,-168.37C401.36,-161.28 427.26,-149.51 445,-132 471.88,-105.47 465.67,-89.55 483,-56 487.68,-46.94 493.01,-36.92 497.45,-28.65"/>
<polygon fill="midnightblue" stroke="midnightblue" points="500.67,-30.05 502.33,-19.59 494.51,-26.73 500.67,-30.05"/>
</g>
<!-- Node15 -->
<g id="node15" class="node">
<title>Node15</title>
<g id="a_node15"><a xlink:title=" ">
<polygon fill="none" stroke="#bfbfbf" points="380,-112.5 380,-131.5 436,-131.5 436,-112.5 380,-112.5"/>
<text text-anchor="middle" x="408" y="-119.5" font-family="Helvetica,sans-Serif" font-size="10.00">assert.h</text>
</a>
</g>
</g>
<!-- Node14&#45;&gt;Node15 -->
<g id="edge20" class="edge">
<title>Node14&#45;&gt;Node15</title>
<path fill="none" stroke="midnightblue" d="M361,-168.32C369.19,-160.42 381.51,-148.55 391.47,-138.94"/>
<polygon fill="midnightblue" stroke="midnightblue" points="394.07,-141.29 398.84,-131.83 389.21,-136.26 394.07,-141.29"/>
</g>
<!-- Node16&#45;&gt;Node4 -->
<g id="edge22" class="edge">
<title>Node16&#45;&gt;Node4</title>
<path fill="none" stroke="midnightblue" d="M229.22,-168.08C224.33,-160.53 217.17,-149.49 211.17,-140.23"/>
<polygon fill="midnightblue" stroke="midnightblue" points="214.05,-138.24 205.67,-131.75 208.17,-142.05 214.05,-138.24"/>
</g>
</g>
</svg>
