<?xml version="1.0" encoding="UTF-8" standalone="no"?>
<!DOCTYPE svg PUBLIC "-//W3C//DTD SVG 1.1//EN"
 "http://www.w3.org/Graphics/SVG/1.1/DTD/svg11.dtd">
<!-- Generated by graphviz version 2.43.0 (0)
 -->
<!-- Title: runqp.c Pages: 1 -->
<svg width="692pt" height="364pt"
 viewBox="0.00 0.00 692.00 364.00" xmlns="http://www.w3.org/2000/svg" xmlns:xlink="http://www.w3.org/1999/xlink">
<g id="graph0" class="graph" transform="scale(1 1) rotate(0) translate(4 360)">
<title>runqp.c</title>
<!-- Node1 -->
<g id="node1" class="node">
<title>Node1</title>
<g id="a_node1"><a xlink:title=" ">
<polygon fill="#bfbfbf" stroke="black" points="414.5,-336.5 414.5,-355.5 467.5,-355.5 467.5,-336.5 414.5,-336.5"/>
<text text-anchor="middle" x="441" y="-343.5" font-family="Helvetica,sans-Serif" font-size="10.00">runqp.c</text>
</a>
</g>
</g>
<!-- Node2 -->
<g id="node2" class="node">
<title>Node2</title>
<g id="a_node2"><a xlink:href="qpSWIFT_8h.html" target="_top" xlink:title=" ">
<polygon fill="none" stroke="black" points="376.5,-280.5 376.5,-299.5 443.5,-299.5 443.5,-280.5 376.5,-280.5"/>
<text text-anchor="middle" x="410" y="-287.5" font-family="Helvetica,sans-Serif" font-size="10.00">qpSWIFT.h</text>
</a>
</g>
</g>
<!-- Node1&#45;&gt;Node2 -->
<g id="edge1" class="edge">
<title>Node1&#45;&gt;Node2</title>
<path fill="none" stroke="midnightblue" d="M435.88,-336.08C431.59,-328.61 425.34,-317.72 420.06,-308.52"/>
<polygon fill="midnightblue" stroke="midnightblue" points="423.04,-306.68 415.02,-299.75 416.97,-310.17 423.04,-306.68"/>
</g>
<!-- Node18 -->
<g id="node18" class="node">
<title>Node18</title>
<g id="a_node18"><a xlink:href="Matrices_8h.html" target="_top" xlink:title=" ">
<polygon fill="none" stroke="black" points="450,-224.5 450,-243.5 518,-243.5 518,-224.5 450,-224.5"/>
<text text-anchor="middle" x="484" y="-231.5" font-family="Helvetica,sans-Serif" font-size="10.00">Matrices.h</text>
</a>
</g>
</g>
<!-- Node1&#45;&gt;Node18 -->
<g id="edge24" class="edge">
<title>Node1&#45;&gt;Node18</title>
<path fill="none" stroke="midnightblue" d="M444.37,-336.37C451.38,-318.46 467.61,-276.92 476.98,-252.95"/>
<polygon fill="midnightblue" stroke="midnightblue" points="480.26,-254.18 480.64,-243.59 473.74,-251.63 480.26,-254.18"/>
</g>
<!-- Node3 -->
<g id="node3" class="node">
<title>Node3</title>
<g id="a_node3"><a xlink:href="Auxilary_8h.html" target="_top" xlink:title=" ">
<polygon fill="none" stroke="black" points="366.5,-224.5 366.5,-243.5 431.5,-243.5 431.5,-224.5 366.5,-224.5"/>
<text text-anchor="middle" x="399" y="-231.5" font-family="Helvetica,sans-Serif" font-size="10.00">Auxilary.h</text>
</a>
</g>
</g>
<!-- Node2&#45;&gt;Node3 -->
<g id="edge2" class="edge">
<title>Node2&#45;&gt;Node3</title>
<path fill="none" stroke="midnightblue" d="M408.18,-280.08C406.73,-272.93 404.63,-262.64 402.81,-253.69"/>
<polygon fill="midnightblue" stroke="midnightblue" points="406.21,-252.85 400.78,-243.75 399.35,-254.25 406.21,-252.85"/>
</g>
<!-- Node4 -->
<g id="node4" class="node">
<title>Node4</title>
<g id="a_node4"><a xlink:href="timer_8h.html" target="_top" xlink:title=" ">
<polygon fill="none" stroke="black" points="535.5,-168.5 535.5,-187.5 586.5,-187.5 586.5,-168.5 535.5,-168.5"/>
<text text-anchor="middle" x="561" y="-175.5" font-family="Helvetica,sans-Serif" font-size="10.00">timer.h</text>
</a>
</g>
</g>
<!-- Node3&#45;&gt;Node4 -->
<g id="edge3" class="edge">
<title>Node3&#45;&gt;Node4</title>
<path fill="none" stroke="midnightblue" d="M424.67,-224.44C451.92,-215.36 495.18,-200.94 525.65,-190.78"/>
<polygon fill="midnightblue" stroke="midnightblue" points="527.07,-194 535.45,-187.52 524.86,-187.36 527.07,-194"/>
</g>
<!-- Node11 -->
<g id="node11" class="node">
<title>Node11</title>
<g id="a_node11"><a xlink:href="amd_8h_source.html" target="_top" xlink:title=" ">
<polygon fill="none" stroke="black" points="127.5,-112.5 127.5,-131.5 174.5,-131.5 174.5,-112.5 127.5,-112.5"/>
<text text-anchor="middle" x="151" y="-119.5" font-family="Helvetica,sans-Serif" font-size="10.00">amd.h</text>
</a>
</g>
</g>
<!-- Node3&#45;&gt;Node11 -->
<g id="edge10" class="edge">
<title>Node3&#45;&gt;Node11</title>
<path fill="none" stroke="midnightblue" d="M366.49,-224.71C337.82,-216.88 295.23,-203.96 260,-188 227.69,-173.36 192.91,-151.43 171.54,-137.16"/>
<polygon fill="midnightblue" stroke="midnightblue" points="173.5,-134.26 163.25,-131.56 169.58,-140.06 173.5,-134.26"/>
</g>
<!-- Node15 -->
<g id="node15" class="node">
<title>Node15</title>
<g id="a_node15"><a xlink:href="amd__internal_8h_source.html" target="_top" xlink:title=" ">
<polygon fill="none" stroke="black" points="269,-168.5 269,-187.5 359,-187.5 359,-168.5 269,-168.5"/>
<text text-anchor="middle" x="314" y="-175.5" font-family="Helvetica,sans-Serif" font-size="10.00">amd_internal.h</text>
</a>
</g>
</g>
<!-- Node3&#45;&gt;Node15 -->
<g id="edge15" class="edge">
<title>Node3&#45;&gt;Node15</title>
<path fill="none" stroke="midnightblue" d="M385.34,-224.32C372.08,-215.9 351.73,-202.97 336.15,-193.07"/>
<polygon fill="midnightblue" stroke="midnightblue" points="337.94,-190.06 327.62,-187.65 334.19,-195.97 337.94,-190.06"/>
</g>
<!-- Node17 -->
<g id="node17" class="node">
<title>Node17</title>
<g id="a_node17"><a xlink:href="ldl_8h_source.html" target="_top" xlink:title=" ">
<polygon fill="none" stroke="black" points="399,-168.5 399,-187.5 437,-187.5 437,-168.5 399,-168.5"/>
<text text-anchor="middle" x="418" y="-175.5" font-family="Helvetica,sans-Serif" font-size="10.00">ldl.h</text>
</a>
</g>
</g>
<!-- Node3&#45;&gt;Node17 -->
<g id="edge22" class="edge">
<title>Node3&#45;&gt;Node17</title>
<path fill="none" stroke="midnightblue" d="M402.14,-224.08C404.68,-216.85 408.36,-206.41 411.53,-197.4"/>
<polygon fill="midnightblue" stroke="midnightblue" points="414.9,-198.35 414.92,-187.75 408.3,-196.02 414.9,-198.35"/>
</g>
<!-- Node5 -->
<g id="node5" class="node">
<title>Node5</title>
<g id="a_node5"><a xlink:href="GlobalOptions_8h_source.html" target="_top" xlink:title=" ">
<polygon fill="none" stroke="black" points="436.5,-112.5 436.5,-131.5 531.5,-131.5 531.5,-112.5 436.5,-112.5"/>
<text text-anchor="middle" x="484" y="-119.5" font-family="Helvetica,sans-Serif" font-size="10.00">GlobalOptions.h</text>
</a>
</g>
</g>
<!-- Node4&#45;&gt;Node5 -->
<g id="edge4" class="edge">
<title>Node4&#45;&gt;Node5</title>
<path fill="none" stroke="midnightblue" d="M548.63,-168.32C536.84,-160.06 518.87,-147.45 504.86,-137.63"/>
<polygon fill="midnightblue" stroke="midnightblue" points="506.54,-134.53 496.34,-131.65 502.52,-140.26 506.54,-134.53"/>
</g>
<!-- Node9 -->
<g id="node9" class="node">
<title>Node9</title>
<g id="a_node9"><a xlink:title=" ">
<polygon fill="none" stroke="#bfbfbf" points="636,-112.5 636,-131.5 684,-131.5 684,-112.5 636,-112.5"/>
<text text-anchor="middle" x="660" y="-119.5" font-family="Helvetica,sans-Serif" font-size="10.00">time.h</text>
</a>
</g>
</g>
<!-- Node4&#45;&gt;Node9 -->
<g id="edge8" class="edge">
<title>Node4&#45;&gt;Node9</title>
<path fill="none" stroke="midnightblue" d="M576.91,-168.32C592.64,-159.74 616.94,-146.49 635.21,-136.52"/>
<polygon fill="midnightblue" stroke="midnightblue" points="637.03,-139.52 644.13,-131.65 633.68,-133.37 637.03,-139.52"/>
</g>
<!-- Node10 -->
<g id="node10" class="node">
<title>Node10</title>
<g id="a_node10"><a xlink:title=" ">
<polygon fill="none" stroke="#bfbfbf" points="550,-112.5 550,-131.5 618,-131.5 618,-112.5 550,-112.5"/>
<text text-anchor="middle" x="584" y="-119.5" font-family="Helvetica,sans-Serif" font-size="10.00">sys/time.h</text>
</a>
</g>
</g>
<!-- Node4&#45;&gt;Node10 -->
<g id="edge9" class="edge">
<title>Node4&#45;&gt;Node10</title>
<path fill="none" stroke="midnightblue" d="M564.8,-168.08C567.91,-160.77 572.42,-150.18 576.29,-141.1"/>
<polygon fill="midnightblue" stroke="midnightblue" points="579.57,-142.32 580.27,-131.75 573.13,-139.58 579.57,-142.32"/>
</g>
<!-- Node6 -->
<g id="node6" class="node">
<title>Node6</title>
<g id="a_node6"><a xlink:title=" ">
<polygon fill="none" stroke="#bfbfbf" points="409.5,-56.5 409.5,-75.5 460.5,-75.5 460.5,-56.5 409.5,-56.5"/>
<text text-anchor="middle" x="435" y="-63.5" font-family="Helvetica,sans-Serif" font-size="10.00">math.h</text>
</a>
</g>
</g>
<!-- Node5&#45;&gt;Node6 -->
<g id="edge5" class="edge">
<title>Node5&#45;&gt;Node6</title>
<path fill="none" stroke="midnightblue" d="M475.91,-112.08C468.84,-104.3 458.41,-92.8 449.85,-83.37"/>
<polygon fill="midnightblue" stroke="midnightblue" points="452.25,-80.8 442.94,-75.75 447.07,-85.51 452.25,-80.8"/>
</g>
<!-- Node7 -->
<g id="node7" class="node">
<title>Node7</title>
<g id="a_node7"><a xlink:title=" ">
<polygon fill="none" stroke="#bfbfbf" points="341,-56.5 341,-75.5 391,-75.5 391,-56.5 341,-56.5"/>
<text text-anchor="middle" x="366" y="-63.5" font-family="Helvetica,sans-Serif" font-size="10.00">stdio.h</text>
</a>
</g>
</g>
<!-- Node5&#45;&gt;Node7 -->
<g id="edge6" class="edge">
<title>Node5&#45;&gt;Node7</title>
<path fill="none" stroke="midnightblue" d="M465.3,-112.44C446.06,-103.64 415.85,-89.81 393.8,-79.72"/>
<polygon fill="midnightblue" stroke="midnightblue" points="395.16,-76.5 384.61,-75.52 392.25,-82.86 395.16,-76.5"/>
</g>
<!-- Node8 -->
<g id="node8" class="node">
<title>Node8</title>
<g id="a_node8"><a xlink:title=" ">
<polygon fill="none" stroke="#bfbfbf" points="231.5,-0.5 231.5,-19.5 284.5,-19.5 284.5,-0.5 231.5,-0.5"/>
<text text-anchor="middle" x="258" y="-7.5" font-family="Helvetica,sans-Serif" font-size="10.00">stdlib.h</text>
</a>
</g>
</g>
<!-- Node5&#45;&gt;Node8 -->
<g id="edge7" class="edge">
<title>Node5&#45;&gt;Node8</title>
<path fill="none" stroke="midnightblue" d="M484.69,-112.47C485.32,-98.57 484.36,-71.1 469,-56 444.72,-32.12 348.44,-19.46 294.72,-14.13"/>
<polygon fill="midnightblue" stroke="midnightblue" points="294.86,-10.62 284.58,-13.16 294.2,-17.59 294.86,-10.62"/>
</g>
<!-- Node12 -->
<g id="node12" class="node">
<title>Node12</title>
<g id="a_node12"><a xlink:title=" ">
<polygon fill="none" stroke="#bfbfbf" points="0,-56.5 0,-75.5 56,-75.5 56,-56.5 0,-56.5"/>
<text text-anchor="middle" x="28" y="-63.5" font-family="Helvetica,sans-Serif" font-size="10.00">stddef.h</text>
</a>
</g>
</g>
<!-- Node11&#45;&gt;Node12 -->
<g id="edge11" class="edge">
<title>Node11&#45;&gt;Node12</title>
<path fill="none" stroke="midnightblue" d="M131.51,-112.44C111.36,-103.6 79.68,-89.69 56.67,-79.59"/>
<polygon fill="midnightblue" stroke="midnightblue" points="57.96,-76.33 47.4,-75.52 55.15,-82.74 57.96,-76.33"/>
</g>
<!-- Node13 -->
<g id="node13" class="node">
<title>Node13</title>
<g id="a_node13"><a xlink:href="SuiteSparse__config_8h_source.html" target="_top" xlink:title=" ">
<polygon fill="none" stroke="black" points="74,-56.5 74,-75.5 192,-75.5 192,-56.5 74,-56.5"/>
<text text-anchor="middle" x="133" y="-63.5" font-family="Helvetica,sans-Serif" font-size="10.00">SuiteSparse_config.h</text>
</a>
</g>
</g>
<!-- Node11&#45;&gt;Node13 -->
<g id="edge12" class="edge">
<title>Node11&#45;&gt;Node13</title>
<path fill="none" stroke="midnightblue" d="M148.03,-112.08C145.62,-104.85 142.14,-94.41 139.13,-85.4"/>
<polygon fill="midnightblue" stroke="midnightblue" points="142.4,-84.13 135.92,-75.75 135.76,-86.34 142.4,-84.13"/>
</g>
<!-- Node13&#45;&gt;Node8 -->
<g id="edge14" class="edge">
<title>Node13&#45;&gt;Node8</title>
<path fill="none" stroke="midnightblue" d="M152.81,-56.44C173.29,-47.6 205.48,-33.69 228.86,-23.59"/>
<polygon fill="midnightblue" stroke="midnightblue" points="230.49,-26.7 238.29,-19.52 227.72,-20.27 230.49,-26.7"/>
</g>
<!-- Node14 -->
<g id="node14" class="node">
<title>Node14</title>
<g id="a_node14"><a xlink:title=" ">
<polygon fill="none" stroke="#bfbfbf" points="133.5,-0.5 133.5,-19.5 186.5,-19.5 186.5,-0.5 133.5,-0.5"/>
<text text-anchor="middle" x="160" y="-7.5" font-family="Helvetica,sans-Serif" font-size="10.00">limits.h</text>
</a>
</g>
</g>
<!-- Node13&#45;&gt;Node14 -->
<g id="edge13" class="edge">
<title>Node13&#45;&gt;Node14</title>
<path fill="none" stroke="midnightblue" d="M137.46,-56.08C141.15,-48.69 146.52,-37.95 151.09,-28.81"/>
<polygon fill="midnightblue" stroke="midnightblue" points="154.28,-30.26 155.62,-19.75 148.02,-27.13 154.28,-30.26"/>
</g>
<!-- Node15&#45;&gt;Node6 -->
<g id="edge19" class="edge">
<title>Node15&#45;&gt;Node6</title>
<path fill="none" stroke="midnightblue" d="M325.21,-168.33C336.5,-159.47 354.31,-145.19 369,-132 386.84,-115.98 406.28,-96.58 419.41,-83.17"/>
<polygon fill="midnightblue" stroke="midnightblue" points="422.23,-85.28 426.7,-75.67 417.22,-80.4 422.23,-85.28"/>
</g>
<!-- Node15&#45;&gt;Node7 -->
<g id="edge17" class="edge">
<title>Node15&#45;&gt;Node7</title>
<path fill="none" stroke="midnightblue" d="M323.34,-168.25C331.82,-159.77 344.03,-146.16 351,-132 358.19,-117.39 362.01,-99.22 363.99,-85.8"/>
<polygon fill="midnightblue" stroke="midnightblue" points="367.47,-86.2 365.25,-75.84 360.52,-85.32 367.47,-86.2"/>
</g>
<!-- Node15&#45;&gt;Node8 -->
<g id="edge16" class="edge">
<title>Node15&#45;&gt;Node8</title>
<path fill="none" stroke="midnightblue" d="M304.43,-168.35C295.79,-159.96 283.46,-146.39 277,-132 261.81,-98.17 258.5,-54.28 257.93,-29.74"/>
<polygon fill="midnightblue" stroke="midnightblue" points="261.43,-29.61 257.83,-19.65 254.43,-29.68 261.43,-29.61"/>
</g>
<!-- Node15&#45;&gt;Node11 -->
<g id="edge20" class="edge">
<title>Node15&#45;&gt;Node11</title>
<path fill="none" stroke="midnightblue" d="M288.17,-168.44C260.11,-159.15 215.17,-144.26 184.43,-134.07"/>
<polygon fill="midnightblue" stroke="midnightblue" points="185.18,-130.64 174.59,-130.82 182.98,-137.28 185.18,-130.64"/>
</g>
<!-- Node15&#45;&gt;Node14 -->
<g id="edge18" class="edge">
<title>Node15&#45;&gt;Node14</title>
<path fill="none" stroke="midnightblue" d="M304.39,-168.28C294.71,-159.39 279.47,-145.09 267,-132 236.14,-99.61 230.73,-89.43 201,-56 192.38,-46.31 182.59,-35.56 174.75,-27"/>
<polygon fill="midnightblue" stroke="midnightblue" points="177.26,-24.57 167.92,-19.57 172.11,-29.3 177.26,-24.57"/>
</g>
<!-- Node16 -->
<g id="node16" class="node">
<title>Node16</title>
<g id="a_node16"><a xlink:title=" ">
<polygon fill="none" stroke="#bfbfbf" points="286,-112.5 286,-131.5 342,-131.5 342,-112.5 286,-112.5"/>
<text text-anchor="middle" x="314" y="-119.5" font-family="Helvetica,sans-Serif" font-size="10.00">assert.h</text>
</a>
</g>
</g>
<!-- Node15&#45;&gt;Node16 -->
<g id="edge21" class="edge">
<title>Node15&#45;&gt;Node16</title>
<path fill="none" stroke="midnightblue" d="M314,-168.08C314,-161.01 314,-150.86 314,-141.99"/>
<polygon fill="midnightblue" stroke="midnightblue" points="317.5,-141.75 314,-131.75 310.5,-141.75 317.5,-141.75"/>
</g>
<!-- Node17&#45;&gt;Node5 -->
<g id="edge23" class="edge">
<title>Node17&#45;&gt;Node5</title>
<path fill="none" stroke="midnightblue" d="M428.6,-168.32C438.46,-160.26 453.35,-148.08 465.22,-138.37"/>
<polygon fill="midnightblue" stroke="midnightblue" points="467.68,-140.88 473.2,-131.83 463.25,-135.46 467.68,-140.88"/>
</g>
<!-- Node18&#45;&gt;Node5 -->
<g id="edge25" class="edge">
<title>Node18&#45;&gt;Node5</title>
<path fill="none" stroke="midnightblue" d="M484,-224.37C484,-206.62 484,-165.67 484,-141.6"/>
<polygon fill="midnightblue" stroke="midnightblue" points="487.5,-141.59 484,-131.59 480.5,-141.59 487.5,-141.59"/>
</g>
</g>
</svg>
