<?xml version="1.0" encoding="UTF-8" standalone="no"?>
<!DOCTYPE svg PUBLIC "-//W3C//DTD SVG 1.1//EN"
 "http://www.w3.org/Graphics/SVG/1.1/DTD/svg11.dtd">
<!-- Generated by graphviz version 2.43.0 (0)
 -->
<!-- Title: QP Pages: 1 -->
<svg width="243pt" height="197pt"
 viewBox="0.00 0.00 242.50 197.00" xmlns="http://www.w3.org/2000/svg" xmlns:xlink="http://www.w3.org/1999/xlink">
<g id="graph0" class="graph" transform="scale(1 1) rotate(0) translate(4 193)">
<title>QP</title>
<!-- Node1 -->
<g id="node1" class="node">
<title>Node1</title>
<g id="a_node1"><a xlink:title=" ">
<polygon fill="#bfbfbf" stroke="black" points="104.5,-0.5 104.5,-19.5 134.5,-19.5 134.5,-0.5 104.5,-0.5"/>
<text text-anchor="middle" x="119.5" y="-7.5" font-family="Helvetica,sans-Serif" font-size="10.00">QP</text>
</a>
</g>
</g>
<!-- Node2 -->
<g id="node2" class="node">
<title>Node2</title>
<g id="a_node2"><a xlink:href="structstats.html" target="_top" xlink:title=" ">
<polygon fill="none" stroke="black" points="0,-85 0,-104 41,-104 41,-85 0,-85"/>
<text text-anchor="middle" x="20.5" y="-92" font-family="Helvetica,sans-Serif" font-size="10.00">stats</text>
</a>
</g>
</g>
<!-- Node2&#45;&gt;Node1 -->
<g id="edge1" class="edge">
<title>Node2&#45;&gt;Node1</title>
<path fill="none" stroke="#9a32cd" stroke-dasharray="5,2" d="M30.4,-76.33C37.97,-64.37 49.33,-48.71 62.5,-38 75.07,-27.78 92.16,-20.35 104.34,-15.9"/>
<polygon fill="#9a32cd" stroke="#9a32cd" points="27.36,-74.59 25.17,-84.96 33.35,-78.22 27.36,-74.59"/>
<text text-anchor="middle" x="76.5" y="-41" font-family="Helvetica,sans-Serif" font-size="10.00"> stats</text>
</g>
<!-- Node3 -->
<g id="node3" class="node">
<title>Node3</title>
<g id="a_node3"><a xlink:href="structsettings.html" target="_top" xlink:title=" ">
<polygon fill="none" stroke="black" points="59.5,-85 59.5,-104 115.5,-104 115.5,-85 59.5,-85"/>
<text text-anchor="middle" x="87.5" y="-92" font-family="Helvetica,sans-Serif" font-size="10.00">settings</text>
</a>
</g>
</g>
<!-- Node3&#45;&gt;Node1 -->
<g id="edge2" class="edge">
<title>Node3&#45;&gt;Node1</title>
<path fill="none" stroke="#9a32cd" stroke-dasharray="5,2" d="M88.54,-74.58C89.72,-63.51 92.22,-49.49 97.5,-38 100.63,-31.19 105.89,-24.64 110.48,-19.7"/>
<polygon fill="#9a32cd" stroke="#9a32cd" points="85.03,-74.58 87.73,-84.83 92.01,-75.14 85.03,-74.58"/>
<text text-anchor="middle" x="117.5" y="-41" font-family="Helvetica,sans-Serif" font-size="10.00"> options</text>
</g>
<!-- Node4 -->
<g id="node4" class="node">
<title>Node4</title>
<g id="a_node4"><a xlink:href="structsmat.html" target="_top" xlink:title=" ">
<polygon fill="none" stroke="black" points="147,-169.5 147,-188.5 188,-188.5 188,-169.5 147,-169.5"/>
<text text-anchor="middle" x="167.5" y="-176.5" font-family="Helvetica,sans-Serif" font-size="10.00">smat</text>
</a>
</g>
</g>
<!-- Node4&#45;&gt;Node1 -->
<g id="edge3" class="edge">
<title>Node4&#45;&gt;Node1</title>
<path fill="none" stroke="#9a32cd" stroke-dasharray="5,2" d="M165.75,-159.32C162.69,-131.83 154.93,-79.28 137.5,-38 134.69,-31.36 130.19,-24.61 126.4,-19.52"/>
<polygon fill="#9a32cd" stroke="#9a32cd" points="162.29,-159.87 166.79,-169.46 169.25,-159.16 162.29,-159.87"/>
<text text-anchor="middle" x="167.5" y="-114" font-family="Helvetica,sans-Serif" font-size="10.00"> At</text>
<text text-anchor="middle" x="167.5" y="-103" font-family="Helvetica,sans-Serif" font-size="10.00">G</text>
<text text-anchor="middle" x="167.5" y="-92" font-family="Helvetica,sans-Serif" font-size="10.00">Gt</text>
<text text-anchor="middle" x="167.5" y="-81" font-family="Helvetica,sans-Serif" font-size="10.00">P</text>
<text text-anchor="middle" x="167.5" y="-70" font-family="Helvetica,sans-Serif" font-size="10.00">A</text>
</g>
<!-- Node5 -->
<g id="node5" class="node">
<title>Node5</title>
<g id="a_node5"><a xlink:href="structkkt.html" target="_top" xlink:title=" ">
<polygon fill="none" stroke="black" points="183.5,-85 183.5,-104 215.5,-104 215.5,-85 183.5,-85"/>
<text text-anchor="middle" x="199.5" y="-92" font-family="Helvetica,sans-Serif" font-size="10.00">kkt</text>
</a>
</g>
</g>
<!-- Node4&#45;&gt;Node5 -->
<g id="edge5" class="edge">
<title>Node4&#45;&gt;Node5</title>
<path fill="none" stroke="#9a32cd" stroke-dasharray="5,2" d="M174.51,-159.93C181.23,-142.61 191.07,-117.24 196.17,-104.1"/>
<polygon fill="#9a32cd" stroke="#9a32cd" points="171.16,-158.89 170.8,-169.48 177.68,-161.42 171.16,-158.89"/>
<text text-anchor="middle" x="208.5" y="-143" font-family="Helvetica,sans-Serif" font-size="10.00"> kktmatrix</text>
</g>
<!-- Node5&#45;&gt;Node1 -->
<g id="edge4" class="edge">
<title>Node5&#45;&gt;Node1</title>
<path fill="none" stroke="#9a32cd" stroke-dasharray="5,2" d="M191.34,-75.48C185.4,-63.78 176.48,-48.77 165.5,-38 156.64,-29.31 144.46,-22.32 134.85,-17.63"/>
<polygon fill="#9a32cd" stroke="#9a32cd" points="188.29,-77.21 195.77,-84.71 194.6,-74.18 188.29,-77.21"/>
<text text-anchor="middle" x="185" y="-41" font-family="Helvetica,sans-Serif" font-size="10.00"> kkt</text>
</g>
</g>
</svg>
