<?xml version="1.0" encoding="UTF-8" standalone="no"?>
<!DOCTYPE svg PUBLIC "-//W3C//DTD SVG 1.1//EN"
 "http://www.w3.org/Graphics/SVG/1.1/DTD/svg11.dtd">
<!-- Generated by graphviz version 2.43.0 (0)
 -->
<!-- Title: timer.h Pages: 1 -->
<svg width="278pt" height="196pt"
 viewBox="0.00 0.00 278.00 196.00" xmlns="http://www.w3.org/2000/svg" xmlns:xlink="http://www.w3.org/1999/xlink">
<g id="graph0" class="graph" transform="scale(1 1) rotate(0) translate(4 192)">
<title>timer.h</title>
<!-- Node1 -->
<g id="node1" class="node">
<title>Node1</title>
<g id="a_node1"><a xlink:title=" ">
<polygon fill="#bfbfbf" stroke="black" points="37.5,-168.5 37.5,-187.5 88.5,-187.5 88.5,-168.5 37.5,-168.5"/>
<text text-anchor="middle" x="63" y="-175.5" font-family="Helvetica,sans-Serif" font-size="10.00">timer.h</text>
</a>
</g>
</g>
<!-- Node2 -->
<g id="node2" class="node">
<title>Node2</title>
<g id="a_node2"><a xlink:href="timer_8c.html" target="_top" xlink:title=" ">
<polygon fill="none" stroke="black" points="0,-112.5 0,-131.5 50,-131.5 50,-112.5 0,-112.5"/>
<text text-anchor="middle" x="25" y="-119.5" font-family="Helvetica,sans-Serif" font-size="10.00">timer.c</text>
</a>
</g>
</g>
<!-- Node1&#45;&gt;Node2 -->
<g id="edge1" class="edge">
<title>Node1&#45;&gt;Node2</title>
<path fill="none" stroke="midnightblue" d="M50.94,-159.86C44.36,-150.5 36.49,-139.33 31.16,-131.75"/>
<polygon fill="midnightblue" stroke="midnightblue" points="48.11,-161.92 56.73,-168.08 53.83,-157.89 48.11,-161.92"/>
</g>
<!-- Node3 -->
<g id="node3" class="node">
<title>Node3</title>
<g id="a_node3"><a xlink:href="Auxilary_8h.html" target="_top" xlink:title=" ">
<polygon fill="none" stroke="black" points="68.5,-112.5 68.5,-131.5 133.5,-131.5 133.5,-112.5 68.5,-112.5"/>
<text text-anchor="middle" x="101" y="-119.5" font-family="Helvetica,sans-Serif" font-size="10.00">Auxilary.h</text>
</a>
</g>
</g>
<!-- Node1&#45;&gt;Node3 -->
<g id="edge2" class="edge">
<title>Node1&#45;&gt;Node3</title>
<path fill="none" stroke="midnightblue" d="M75.06,-159.86C81.64,-150.5 89.51,-139.33 94.84,-131.75"/>
<polygon fill="midnightblue" stroke="midnightblue" points="72.17,-157.89 69.27,-168.08 77.89,-161.92 72.17,-157.89"/>
</g>
<!-- Node4 -->
<g id="node4" class="node">
<title>Node4</title>
<g id="a_node4"><a xlink:href="Auxilary_8c.html" target="_top" xlink:title=" ">
<polygon fill="none" stroke="black" points="27,-56.5 27,-75.5 91,-75.5 91,-56.5 27,-56.5"/>
<text text-anchor="middle" x="59" y="-63.5" font-family="Helvetica,sans-Serif" font-size="10.00">Auxilary.c</text>
</a>
</g>
</g>
<!-- Node3&#45;&gt;Node4 -->
<g id="edge3" class="edge">
<title>Node3&#45;&gt;Node4</title>
<path fill="none" stroke="midnightblue" d="M87.89,-104.14C80.57,-94.74 71.76,-83.4 65.81,-75.75"/>
<polygon fill="midnightblue" stroke="midnightblue" points="85.16,-106.34 94.06,-112.08 90.69,-102.04 85.16,-106.34"/>
</g>
<!-- Node5 -->
<g id="node5" class="node">
<title>Node5</title>
<g id="a_node5"><a xlink:href="qpSWIFT_8h.html" target="_top" xlink:title=" ">
<polygon fill="none" stroke="black" points="109.5,-56.5 109.5,-75.5 176.5,-75.5 176.5,-56.5 109.5,-56.5"/>
<text text-anchor="middle" x="143" y="-63.5" font-family="Helvetica,sans-Serif" font-size="10.00">qpSWIFT.h</text>
</a>
</g>
</g>
<!-- Node3&#45;&gt;Node5 -->
<g id="edge4" class="edge">
<title>Node3&#45;&gt;Node5</title>
<path fill="none" stroke="midnightblue" d="M114.11,-104.14C121.43,-94.74 130.24,-83.4 136.19,-75.75"/>
<polygon fill="midnightblue" stroke="midnightblue" points="111.31,-102.04 107.94,-112.08 116.84,-106.34 111.31,-102.04"/>
</g>
<!-- Node6 -->
<g id="node6" class="node">
<title>Node6</title>
<g id="a_node6"><a xlink:href="qpSWIFT_8c.html" target="_top" xlink:title=" ">
<polygon fill="none" stroke="black" points="32,-0.5 32,-19.5 98,-19.5 98,-0.5 32,-0.5"/>
<text text-anchor="middle" x="65" y="-7.5" font-family="Helvetica,sans-Serif" font-size="10.00">qpSWIFT.c</text>
</a>
</g>
</g>
<!-- Node5&#45;&gt;Node6 -->
<g id="edge5" class="edge">
<title>Node5&#45;&gt;Node6</title>
<path fill="none" stroke="midnightblue" d="M122.23,-50.62C107.98,-40.76 89.54,-27.99 77.5,-19.65"/>
<polygon fill="midnightblue" stroke="midnightblue" points="120.25,-53.51 130.47,-56.32 124.24,-47.75 120.25,-53.51"/>
</g>
<!-- Node7 -->
<g id="node7" class="node">
<title>Node7</title>
<g id="a_node7"><a xlink:href="runqp_8c.html" target="_top" xlink:title=" ">
<polygon fill="none" stroke="black" points="116.5,-0.5 116.5,-19.5 169.5,-19.5 169.5,-0.5 116.5,-0.5"/>
<text text-anchor="middle" x="143" y="-7.5" font-family="Helvetica,sans-Serif" font-size="10.00">runqp.c</text>
</a>
</g>
</g>
<!-- Node5&#45;&gt;Node7 -->
<g id="edge6" class="edge">
<title>Node5&#45;&gt;Node7</title>
<path fill="none" stroke="midnightblue" d="M143,-45.8C143,-36.91 143,-26.78 143,-19.75"/>
<polygon fill="midnightblue" stroke="midnightblue" points="139.5,-46.08 143,-56.08 146.5,-46.08 139.5,-46.08"/>
</g>
<!-- Node8 -->
<g id="node8" class="node">
<title>Node8</title>
<g id="a_node8"><a xlink:href="runqpcpp_8cpp.html" target="_top" xlink:title=" ">
<polygon fill="none" stroke="black" points="188,-0.5 188,-19.5 270,-19.5 270,-0.5 188,-0.5"/>
<text text-anchor="middle" x="229" y="-7.5" font-family="Helvetica,sans-Serif" font-size="10.00">runqpcpp.cpp</text>
</a>
</g>
</g>
<!-- Node5&#45;&gt;Node8 -->
<g id="edge7" class="edge">
<title>Node5&#45;&gt;Node8</title>
<path fill="none" stroke="midnightblue" d="M165.45,-50.9C181.22,-41 201.81,-28.07 215.22,-19.65"/>
<polygon fill="midnightblue" stroke="midnightblue" points="163.43,-48.04 156.82,-56.32 167.15,-53.97 163.43,-48.04"/>
</g>
</g>
</svg>
